<svg xmlns="http://www.w3.org/2000/svg" version="1.1" xmlns:xlink="http://www.w3.org/1999/xlink" xmlns:svgjs="http://svgjs.dev/svgjs" width="1920" height="1080" preserveAspectRatio="none" viewBox="0 0 1920 1080"><g mask="url(&quot;#SvgjsMask1870&quot;)" fill="none"><rect width="1920" height="1080" x="0" y="0" fill="url(&quot;#SvgjsLinearGradient1871&quot;)"></rect><path d="M0 0L474.48 0L0 65.96z" fill="rgba(255, 255, 255, .1)"></path><path d="M0 65.96L474.48 0L1054.47 0L0 565.6z" fill="rgba(255, 255, 255, .075)"></path><path d="M0 565.6L1054.47 0L1572.26 0L0 858.74z" fill="rgba(255, 255, 255, .05)"></path><path d="M0 858.74L1572.26 0L1814.04 0L0 900.08z" fill="rgba(255, 255, 255, .025)"></path><path d="M1920 1080L1674.81 1080L1920 555.72z" fill="rgba(0, 0, 0, .1)"></path><path d="M1920 555.72L1674.81 1080L806.5799999999999 1080L1920 337.81000000000006z" fill="rgba(0, 0, 0, .075)"></path><path d="M1920 337.81000000000006L806.5799999999999 1080L652.77 1080L1920 134.34000000000006z" fill="rgba(0, 0, 0, .05)"></path><path d="M1920 134.34000000000003L652.77 1080L308.29999999999995 1080L1920 90.01000000000003z" fill="rgba(0, 0, 0, .025)"></path></g><defs><mask id="SvgjsMask1870"><rect width="1920" height="1080" fill="#ffffff"></rect></mask><linearGradient x1="50%" y1="100%" x2="50%" y2="0%" gradientUnits="userSpaceOnUse" id="SvgjsLinearGradient1871"><stop stop-color="rgba(14, 42, 71, 1)" offset="0.1"></stop><stop stop-color="rgba(0, 141, 158, 0.8)" offset="0.86"></stop></linearGradient></defs></svg>